<svg xmlns="http://www.w3.org/2000/svg" width="19.069" height="64.937" viewBox="0 0 19.069 64.937"><g transform="translate(19.069 -0.059) rotate(90)"><path d="M.007,6.256A.815.815,0,0,1,.3,5.514a.824.824,0,0,1,1.169.1c.073.085,7.066,8.32,14.382,8.137,3.1-.079,5.867-1.692,8.222-4.8C29.184,2.209,31.911-.134,34.492.006,37.437.164,39.531,3.658,43,9.445l.761,1.266c2.118,3.512,4.236,5.356,6.476,5.624,3.652.444,7.48-3.408,11.186-7.139L62.658,7.96a.831.831,0,0,1,1.175,1.175c-.414.408-.822.816-1.229,1.229-3.986,4.011-8.107,8.155-12.562,7.62-2.781-.335-5.3-2.434-7.7-6.415L41.576,10.3c-3.08-5.131-5.112-8.527-7.182-8.636-1.862-.1-4.467,2.3-9,8.289-2.678,3.53-5.873,5.368-9.507,5.459C7.779,15.611.5,7.048.2,6.682a.813.813,0,0,1-.189-.426Z" transform="translate(0.059 0)" fill="red"/><path d="M.006.932A1.272,1.272,0,0,1,0,.78.83.83,0,0,1,.876,0L11.363.622A.85.85,0,0,1,12,.987a.822.822,0,0,1,.1.73L8.521,12.167a.83.83,0,1,1-1.57-.536l3.226-9.415-9.4-.56A.832.832,0,0,1,.006.932Z" transform="translate(52.852 6.341)" fill="red"/></g></svg>