<svg xmlns="http://www.w3.org/2000/svg" width="8" height="7" viewBox="0 0 8 7"><g transform="translate(-329 -527)"><g transform="translate(328.792 525.838)"><path d="M2.988,8.057.3,5.086a.394.394,0,0,1,0-.512L1.321,3.446a.308.308,0,0,1,.463,0L3.224,5.039,6.632,1.267a.308.308,0,0,1,.463,0L8.114,2.394a.394.394,0,0,1,0,.512L3.451,8.057A.308.308,0,0,1,2.988,8.057Z"/></g><path d="M331.78,533.9l-2.685-2.972a.392.392,0,0,1,0-.512l1.018-1.127a.309.309,0,0,1,.464,0l1.439,1.593,3.408-3.773a.309.309,0,0,1,.464,0l1.018,1.127a.4.4,0,0,1,0,.513l-4.663,5.151a.308.308,0,0,1-.463,0Z" fill="#fff"/></g></svg>