<svg width="282" height="6" viewBox="0 0 282 6" fill="none" xmlns="http://www.w3.org/2000/svg">
<path d="M1 4.75C4.415 4.75 4.188 1 7.667 1C11.146 1 10.855 4.75 14.334 4.75C17.813 4.75 17.521 1 21 1C24.479 1 24.188 4.75 27.667 4.75C31.146 4.75 30.854 1 34.333 1C37.812 1 37.521 4.75 41 4.75C44.479 4.75 44.188 1 47.667 1C51.146 1 50.855 4.75 54.334 4.75C57.813 4.75 57.521 1 61 1C64.479 1 64.188 4.75 67.667 4.75C71.146 4.75 70.854 1 74.333 1C77.812 1 77.521 4.75 81 4.75C84.479 4.75 84.188 1 87.667 1C91.146 1 90.855 4.75 94.334 4.75" stroke="white" stroke-width="2" stroke-miterlimit="10" stroke-linecap="round"/>
<path d="M94.1483 4.80064C97.5633 4.80064 97.3363 1.12859 100.815 1.12859C104.294 1.12859 104.003 4.80064 107.482 4.80064C110.961 4.80064 110.669 1.12859 114.148 1.12859C117.627 1.12859 117.336 4.80064 120.815 4.80064C124.294 4.80064 124.002 1.12859 127.481 1.12859C130.96 1.12859 130.669 4.80064 134.148 4.80064C137.627 4.80064 137.336 1.12859 140.815 1.12859C144.294 1.12859 144.003 4.80064 147.482 4.80064C150.961 4.80064 150.669 1.12859 154.148 1.12859C157.627 1.12859 157.336 4.80064 160.815 4.80064C164.294 4.80064 164.002 1.12859 167.481 1.12859C170.96 1.12859 170.669 4.80064 174.148 4.80064C177.627 4.80064 177.336 1.12859 180.815 1.12859C184.294 1.12859 184.003 4.80064 187.482 4.80064" stroke="white" stroke-width="2" stroke-miterlimit="10" stroke-linecap="round"/>
<path d="M187.261 4.79013C190.676 4.79013 190.449 1.11807 193.928 1.11807C197.407 1.11807 197.116 4.79013 200.595 4.79013C204.074 4.79013 203.782 1.11807 207.261 1.11807C210.74 1.11807 210.449 4.79013 213.928 4.79013C217.407 4.79013 217.115 1.11807 220.594 1.11807C224.073 1.11807 223.782 4.79013 227.261 4.79013C230.74 4.79013 230.449 1.11807 233.928 1.11807C237.407 1.11807 237.116 4.79013 240.595 4.79013C244.074 4.79013 243.782 1.11807 247.261 1.11807C250.74 1.11807 250.449 4.79013 253.928 4.79013C257.407 4.79013 257.115 1.11807 260.594 1.11807C264.073 1.11807 263.782 4.79013 267.261 4.79013C270.74 4.79013 270.449 1.11807 273.928 1.11807C277.407 1.11807 277.116 4.79013 280.595 4.79013" stroke="white" stroke-width="2" stroke-miterlimit="10" stroke-linecap="round"/>
</svg>
